<svg width="30" height="31" viewBox="0 0 30 31" fill="none" xmlns="http://www.w3.org/2000/svg">
<path d="M14.9959 10.5007C12.2431 10.5007 9.99666 12.7472 9.99666 15.5C9.99666 18.2528 12.2431 20.4992 14.9959 20.4992C17.7487 20.4992 19.9952 18.2528 19.9952 15.5C19.9952 12.7472 17.7487 10.5007 14.9959 10.5007ZM29.9899 15.5C29.9899 13.4298 30.0087 11.3783 29.8924 9.31188C29.7761 6.91164 29.2286 4.78143 27.4734 3.02625C25.7145 1.26733 23.588 0.723523 21.1878 0.607262C19.1176 0.491 17.0661 0.509752 14.9997 0.509752C12.9295 0.509752 10.878 0.491 8.81154 0.607262C6.4113 0.723523 4.28109 1.27108 2.52592 3.02625C0.766992 4.78518 0.223188 6.91164 0.106926 9.31188C-0.00933561 11.3821 0.00941631 13.4335 0.00941631 15.5C0.00941631 17.5665 -0.00933561 19.6217 0.106926 21.6881C0.223188 24.0884 0.770742 26.2186 2.52592 27.9737C4.28484 29.7327 6.4113 30.2765 8.81154 30.3927C10.8817 30.509 12.9332 30.4902 14.9997 30.4902C17.0699 30.4902 19.1213 30.509 21.1878 30.3927C23.588 30.2765 25.7182 29.7289 27.4734 27.9737C29.2323 26.2148 29.7761 24.0884 29.8924 21.6881C30.0124 19.6217 29.9899 17.5702 29.9899 15.5ZM14.9959 23.192C10.7392 23.192 7.30389 19.7567 7.30389 15.5C7.30389 11.2433 10.7392 7.80798 14.9959 7.80798C19.2526 7.80798 22.6879 11.2433 22.6879 15.5C22.6879 19.7567 19.2526 23.192 14.9959 23.192ZM23.003 9.28938C22.0091 9.28938 21.2065 8.4868 21.2065 7.49295C21.2065 6.4991 22.0091 5.69652 23.003 5.69652C23.9968 5.69652 24.7994 6.4991 24.7994 7.49295C24.7997 7.72894 24.7534 7.96267 24.6632 8.18076C24.5731 8.39885 24.4408 8.597 24.2739 8.76388C24.107 8.93075 23.9089 9.06306 23.6908 9.15323C23.4727 9.24341 23.2389 9.28967 23.003 9.28938Z" fill="url(#paint0_linear_45_907)"/>
<defs>
<linearGradient id="paint0_linear_45_907" x1="27.0641" y1="0.508638" x2="1.31863" y2="29.1175" gradientUnits="userSpaceOnUse">
<stop stop-color="#6622CD"/>
<stop offset="0.384895" stop-color="#D31460"/>
<stop offset="0.700548" stop-color="#ED5035"/>
<stop offset="1" stop-color="#F6C85B"/>
</linearGradient>
</defs>
</svg>
