<?xml version="1.0" standalone="no"?><!DOCTYPE svg PUBLIC "-//W3C//DTD SVG 1.1//EN" "http://www.w3.org/Graphics/SVG/1.1/DTD/svg11.dtd"><svg t="1668496312848" class="icon" viewBox="0 0 1024 1024" version="1.1" xmlns="http://www.w3.org/2000/svg" p-id="2269" xmlns:xlink="http://www.w3.org/1999/xlink" width="200" height="200"><path d="M512 64c247.424 0 448 200.576 448 448S759.424 960 512 960 64 759.424 64 512 264.576 64 512 64zM128 512c0 212.077 171.923 384 384 384 94.518 0 181.06-34.149 247.963-90.782l-541.181-541.18C162.149 330.938 128 417.481 128 512z m384-384c-94.518 0-181.06 34.149-247.963 90.782l541.181 541.18C861.851 693.062 896 606.519 896 512c0-212.077-171.923-384-384-384z" fill="#000000" fill-opacity=".65" p-id="2270"></path></svg>