<svg id="图层_1" data-name="图层 1" xmlns="http://www.w3.org/2000/svg" viewBox="0 0 512.01 512"><title>link</title><path d="M512,256c0-35.35.32-70.38-1.67-105.67C508.33,109.34,499,73,469,43S402.65,3.67,361.67,1.68C326.32-.3,291.28,0,256,0S185.61-.3,150.32,1.68C109.34,3.67,73,13,43,43S3.66,109.34,1.68,150.33C-.31,185.68,0,220.71,0,256s-.32,70.38,1.67,105.67C3.66,402.66,13,439,43,469s66.35,39.32,107.33,41.31c35.36,2,70.39,1.66,105.68,1.66s70.38.32,105.67-1.66C402.65,508.33,439,499,469,469s39.33-66.35,41.31-107.34C512.36,326.38,512,291.35,512,256ZM301.12,347.54c-.07.07-.15.16-.23.23L258.17,390.5A96.64,96.64,0,0,1,121.51,253.83l23.59-23.59A10.16,10.16,0,0,1,162.45,237a117,117,0,0,0,6.16,33.52,10.23,10.23,0,0,1-2.41,10.56l-8.32,8.32c-17.81,17.82-18.37,46.84-.73,64.83a45.81,45.81,0,0,0,65,.32l42.73-42.72a45.76,45.76,0,0,0,0-64.74,48.28,48.28,0,0,0-6.58-5.44,10.21,10.21,0,0,1-4.41-8,25.32,25.32,0,0,1,7.43-19l13.39-13.38a10.22,10.22,0,0,1,13.09-1.1,96.57,96.57,0,0,1,13,10.93h0A96.58,96.58,0,0,1,301.12,347.54Zm89.37-89.37L366.9,281.76A10.16,10.16,0,0,1,349.55,275a117,117,0,0,0-6.16-33.51,10.24,10.24,0,0,1,2.41-10.57l8.32-8.32c17.81-17.81,18.37-46.83.73-64.82a45.81,45.81,0,0,0-65.05-.32l-42.73,42.71a45.76,45.76,0,0,0,0,64.74,46.56,46.56,0,0,0,6.58,5.45,10.21,10.21,0,0,1,4.41,8,25.36,25.36,0,0,1-7.43,18.95l-13.39,13.38a10.22,10.22,0,0,1-13.09,1.1,96.67,96.67,0,0,1-13.27-147.36l.23-.23,42.72-42.73a96.75,96.75,0,0,1,136.66,0h0A96.73,96.73,0,0,1,390.49,258.17Z" transform="translate(0 0)"/></svg>