<?xml version="1.0" encoding="utf-8"?>
<!-- Generator: Adobe Illustrator 23.0.2, SVG Export Plug-In . SVG Version: 6.00 Build 0)  -->
<svg version="1.1" id="图层_1" xmlns="http://www.w3.org/2000/svg" xmlns:xlink="http://www.w3.org/1999/xlink" x="0px" y="0px"
	 viewBox="0 0 195 41.7" style="enable-background:new 0 0 195 41.7;" xml:space="preserve">
<style type="text/css">
	.st0{fill:#E7361A;}
</style>
<path d="M128.9,2.2v23c0,1.4,0.1,2.9,0.5,4.3c0.3,1,0.8,1.9,1.6,2.6c1.8,1.7,4.3,2.5,6.7,2.4c1.7,0,3.3-0.3,4.8-1
	c1.2-0.5,2.2-1.4,2.8-2.5c0.5-1.1,0.8-3,0.8-5.8v-23h8.2v22.6c0.1,2.5-0.3,5-0.9,7.4c-0.5,1.8-1.5,3.4-2.9,4.7c-3,2.7-7.3,4-12.9,4
	c-5.9,0-10.3-1.3-13-3.9c-1.3-1.2-2.4-2.8-2.9-4.5c-0.6-2.3-0.9-4.6-0.8-7V2.2H128.9z"/>
<path d="M80.7,34.8c-0.1-1.3-0.2-2.5-0.5-3.8c-0.2-0.9-0.6-1.8-1-2.6c-0.5-1-1.2-1.9-2.1-2.6c-1-0.7-2.2-1.3-3.4-1.7
	c1.7-0.5,3.3-1.4,4.6-2.7c1.8-2,2.8-4.8,2.8-8.5c0-1.7-0.4-3.5-1.2-5c-0.8-1.5-1.9-2.8-3.4-3.7c-2.1-1.4-5.9-2-11.2-2H46.5
	c0,3.7,3,6.7,6.7,6.8h12.9c1.1,0,2.1,0.1,3.2,0.4c1.8,0.7,2.8,2.2,2.8,4.5c0,2.1-0.6,3.6-1.8,4.4c-1.2,0.7-2.7,1-4.1,0.9H46.5v21.4
	h8.2V26h6.6c2.2-0.2,4.5,0.2,6.5,1.1c1.2,0.7,2.1,1.7,2.7,2.9c0.7,1.6,1.1,3.4,1.2,5.1c0.2,1.8,0.4,3.7,0.9,5.5h9.2
	C81.1,38.7,80.8,36.7,80.7,34.8z"/>
<path d="M194.1,34.8c-0.1-1.3-0.2-2.5-0.5-3.7c-0.2-0.9-0.6-1.8-1-2.6c-0.5-1-1.2-1.9-2.1-2.6c-1-0.7-2.2-1.3-3.4-1.7
	c1.7-0.5,3.3-1.4,4.6-2.7c1.8-2,2.8-4.8,2.8-8.5c0-1.7-0.4-3.5-1.2-5c-0.8-1.5-1.9-2.8-3.4-3.7c-2.1-1.4-5.9-2.1-11.2-2.1h-18.8
	c0,3.7,3,6.8,6.7,6.8h12.9c1.1,0,2.1,0.1,3.2,0.4c1.8,0.7,2.8,2.2,2.8,4.5c0,2.1-0.6,3.6-1.8,4.4c-1.2,0.7-2.7,1-4.1,0.9h-19.6v21.4
	h8.2V26h6.6c2.2-0.2,4.5,0.2,6.5,1.1c1.2,0.7,2.1,1.7,2.7,2.9c0.7,1.6,1.1,3.3,1.2,5.1c0.2,1.8,0.4,3.7,0.9,5.5h9.1
	C194.5,38.7,194.2,36.7,194.1,34.8z"/>
<path d="M90.7,9L90.7,9z"/>
<path d="M84,2.2L84,2.2c0,3.7,3,6.7,6.7,6.8h5.5v31.6h8.2V9h12.7V2.2H84z"/>
<path class="st0" d="M20.4,0C9,0.1-0.1,9.4,0,20.8c0,0,0,0,0,0c-0.1,11.4,9,20.7,20.4,20.8c11.4-0.1,20.5-9.4,20.4-20.8c0,0,0,0,0,0
	C41,9.4,31.8,0.1,20.4,0C20.4,0,20.4,0,20.4,0z M20.4,33.4c-5.5,0-10-5.6-10-12.5s4.5-12.5,10-12.5s10,5.6,10,12.5
	S25.9,33.4,20.4,33.4z"/>
</svg>
