<?xml version="1.0" encoding="utf-8"?>
<!-- Generator: Adobe Illustrator 23.0.2, SVG Export Plug-In . SVG Version: 6.00 Build 0)  -->
<svg version="1.1" id="图层_1" xmlns="http://www.w3.org/2000/svg" xmlns:xlink="http://www.w3.org/1999/xlink" x="0px" y="0px"
	 viewBox="0 0 30 24" style="enable-background:new 0 0 30 24;" xml:space="preserve">
<g>
	<path d="M15,23.9c-0.4,0-0.8-0.1-1.2-0.3l-12-6.9c-0.7-0.4-1.2-1.2-1.2-2.1V9.3c0-0.9,0.5-1.6,1.2-2.1l12-6.9
		c0.7-0.4,1.6-0.4,2.4,0l12,6.9c0.7,0.4,1.2,1.2,1.2,2.1v5.3c0,0.9-0.5,1.7-1.2,2.1l-12,6.9C15.8,23.8,15.4,23.9,15,23.9z M1.6,9.1
		c0,0.1,0,0.1,0,0.2v5.3c0,0.5,0.3,1,0.7,1.2l12,6.9c0.1,0,0.1,0.1,0.2,0.1v-6.4L1.6,9.1z M15.5,16.5v6.4c0.1,0,0.1-0.1,0.2-0.1
		l12-6.9c0.4-0.2,0.7-0.7,0.7-1.2V9.3c0-0.1,0-0.1,0-0.2L15.5,16.5z M15,16.2L15,16.2z M2.1,8.2L15,15.6l12.9-7.4
		c-0.1,0-0.1-0.1-0.2-0.1l-12-6.9c-0.4-0.2-1-0.2-1.4,0l-12,6.9C2.2,8.2,2.1,8.2,2.1,8.2z"/>
</g>
</svg>
