<?xml version="1.0" encoding="utf-8"?>
<!-- Generator: Adobe Illustrator 23.0.2, SVG Export Plug-In . SVG Version: 6.00 Build 0)  -->
<svg version="1.1" id="图层_1" xmlns="http://www.w3.org/2000/svg" xmlns:xlink="http://www.w3.org/1999/xlink" x="0px" y="0px"
	 viewBox="0 0 22 24" style="enable-background:new 0 0 22 24;" xml:space="preserve">
<style type="text/css">
	.st0{opacity:0.3;}
</style>
<path d="M0.5,0h1C1.8,0,2,0.2,2,0.5v23C2,23.8,1.8,24,1.5,24h-1C0.2,24,0,23.8,0,23.5v-23C0,0.2,0.2,0,0.5,0z"/>
<path d="M5.5,0h1C6.8,0,7,0.2,7,0.5v23C7,23.8,6.8,24,6.5,24h-1C5.2,24,5,23.8,5,23.5v-23C5,0.2,5.2,0,5.5,0z"/>
<path d="M10.5,0h1C11.8,0,12,0.2,12,0.5v23c0,0.3-0.2,0.5-0.5,0.5h-1c-0.3,0-0.5-0.2-0.5-0.5v-23C10,0.2,10.2,0,10.5,0z"/>
<path d="M15.5,0h1C16.8,0,17,0.2,17,0.5v23c0,0.3-0.2,0.5-0.5,0.5h-1c-0.3,0-0.5-0.2-0.5-0.5v-23C15,0.2,15.2,0,15.5,0z"/>
<g class="st0">
	<path d="M20.5,0h1C21.8,0,22,0.2,22,0.5v23c0,0.3-0.2,0.5-0.5,0.5h-1c-0.3,0-0.5-0.2-0.5-0.5v-23C20,0.2,20.2,0,20.5,0z"/>
</g>
</svg>
