<?xml version="1.0" encoding="utf-8"?>
<!-- Generator: Adobe Illustrator 23.0.2, SVG Export Plug-In . SVG Version: 6.00 Build 0)  -->
<svg version="1.1" id="图层_1" xmlns="http://www.w3.org/2000/svg" xmlns:xlink="http://www.w3.org/1999/xlink" x="0px" y="0px"
	 viewBox="0 0 26 26" style="enable-background:new 0 0 26 26;" xml:space="preserve">
<g>
	<path d="M7.7,19.2c0-0.1,1.6-7.9,2.3-11.8h6.9c2.1,0,4.7,8-4.4,8l2.8-2.8h-1.2L16,9.8h-3.2l-1.9,3.8h1.3L7.7,19.2z"/>
</g>
<g>
	<path d="M13,25.5C6.1,25.5,0.5,19.9,0.5,13S6.1,0.5,13,0.5S25.5,6.1,25.5,13S19.9,25.5,13,25.5z M13,1.5C6.7,1.5,1.5,6.7,1.5,13
		c0,6.3,5.2,11.5,11.5,11.5c6.3,0,11.5-5.2,11.5-11.5C24.5,6.7,19.3,1.5,13,1.5z"/>
</g>
</svg>
