<?xml version="1.0" encoding="utf-8"?>
<!-- Generator: Adobe Illustrator 23.0.2, SVG Export Plug-In . SVG Version: 6.00 Build 0)  -->
<svg version="1.1" id="图层_1" xmlns="http://www.w3.org/2000/svg" xmlns:xlink="http://www.w3.org/1999/xlink" x="0px" y="0px"
	 viewBox="0 0 12 12" style="enable-background:new 0 0 12 12;" xml:space="preserve">
<style type="text/css">
	.st0{fill:#949494;}
</style>
<g>
	<path class="st0" d="M10.6,12H1.4C0.6,12,0,11.4,0,10.6V1.4C0,0.6,0.6,0,1.4,0h2.8c0.3,0,0.5,0.2,0.5,0.5S4.4,1,4.2,1H1.4
		C1.2,1,1,1.2,1,1.4v9.2C1,10.8,1.2,11,1.4,11h9.2c0.2,0,0.4-0.2,0.4-0.4V7.7c0-0.3,0.2-0.5,0.5-0.5S12,7.4,12,7.7v2.9
		C12,11.4,11.4,12,10.6,12z M6.5,6c-0.1,0-0.3,0-0.4-0.1C6,5.6,6,5.3,6.2,5.1L10.3,1H7.2C6.9,1,6.7,0.8,6.7,0.5S6.9,0,7.2,0h4.3
		C11.8,0,12,0.2,12,0.5v4.3c0,0.3-0.2,0.5-0.5,0.5S11,5.1,11,4.8V1.7L6.9,5.8C6.8,5.9,6.7,6,6.5,6z"/>
</g>
</svg>
