<?xml version="1.0" encoding="utf-8"?>
<!-- Generator: Adobe Illustrator 23.0.2, SVG Export Plug-In . SVG Version: 6.00 Build 0)  -->
<svg version="1.1" id="图层_1" xmlns="http://www.w3.org/2000/svg" xmlns:xlink="http://www.w3.org/1999/xlink" x="0px" y="0px"
	 viewBox="0 0 26 26" style="enable-background:new 0 0 26 26;" xml:space="preserve">
<g>
	<path d="M13,25.8C6,25.8,0.2,20,0.2,13S6,0.2,13,0.2c2.3,0,4.5,0.6,6.4,1.7c0.2,0.1,0.3,0.4,0.2,0.7c-0.1,0.2-0.4,0.3-0.7,0.2
		c-1.8-1-3.8-1.6-5.9-1.6C6.5,1.2,1.2,6.5,1.2,13c0,6.5,5.3,11.8,11.8,11.8S24.8,19.5,24.8,13c0-2.1-0.5-4.1-1.6-5.9
		c-0.1-0.2-0.1-0.5,0.2-0.7c0.2-0.1,0.5-0.1,0.7,0.2c1.1,1.9,1.7,4.1,1.7,6.4C25.8,20,20,25.8,13,25.8z M13.1,15.9
		c-0.8,0-1.5-0.3-2.1-0.9c-1.2-1.2-1.2-3,0-4.2c1-1,6.1-2.9,6.7-3.2c0.2-0.1,0.4,0,0.5,0.1s0.2,0.3,0.1,0.5
		c-0.2,0.6-2.1,5.7-3.2,6.7C14.6,15.5,13.9,15.9,13.1,15.9z M17,9c-2.1,0.8-4.7,2-5.3,2.5c-0.8,0.8-0.8,2,0,2.8c0.7,0.7,2,0.7,2.8,0
		C15,13.7,16.2,11.1,17,9z"/>
</g>
</svg>
