<?xml version="1.0" encoding="utf-8"?>
<!-- Generator: Adobe Illustrator 23.0.2, SVG Export Plug-In . SVG Version: 6.00 Build 0)  -->
<svg version="1.1" id="图层_1" xmlns="http://www.w3.org/2000/svg" xmlns:xlink="http://www.w3.org/1999/xlink" x="0px" y="0px"
	 viewBox="0 0 16 16" style="enable-background:new 0 0 16 16;" xml:space="preserve">
<style type="text/css">
	.st0{fill:#FF6161;}
</style>
<g>
	<path class="st0" d="M13.6,15.9H2.4V2.8H1.3C1,2.8,0.8,2.6,0.8,2.3S1,1.8,1.3,1.8h13.5c0.3,0,0.5,0.2,0.5,0.5S15,2.8,14.7,2.8h-1.2
		V15.9z M3.4,14.9h9.1V2.8H3.4V14.9z M9.7,12.5c-0.3,0-0.5-0.2-0.5-0.5V6.1c0-0.3,0.2-0.5,0.5-0.5s0.5,0.2,0.5,0.5V12
		C10.2,12.3,10,12.5,9.7,12.5z M6.3,12.5c-0.3,0-0.5-0.2-0.5-0.5V6.1c0-0.3,0.2-0.5,0.5-0.5s0.5,0.2,0.5,0.5V12
		C6.8,12.3,6.6,12.5,6.3,12.5z M10.5,1.1H5.5C5.2,1.1,5,0.9,5,0.6s0.2-0.5,0.5-0.5h5.1c0.3,0,0.5,0.2,0.5,0.5S10.8,1.1,10.5,1.1z"/>
</g>
</svg>
