<svg width="24" height="26" viewBox="0 0 24 26" fill="none" xmlns="http://www.w3.org/2000/svg">
<path d="M17.4415 9.45456C19.0882 10.6311 21.1055 11.3233 23.2842 11.3233V7.13301C22.8718 7.1331 22.4606 7.09008 22.0572 7.00465V10.303C19.8786 10.303 17.8616 9.61087 16.2145 8.43445V16.9857C16.2145 21.2636 12.7449 24.7311 8.46518 24.7311C6.86832 24.7311 5.38404 24.2486 4.1511 23.421C5.55833 24.8592 7.5208 25.7513 9.69185 25.7513C13.9719 25.7513 17.4417 22.2838 17.4417 18.0057L17.4415 9.45456ZM18.9552 5.22706C18.1136 4.30816 17.561 3.12063 17.4415 1.80773V1.2688H16.2787C16.5714 2.93743 17.5698 4.36299 18.9552 5.22706ZM6.858 20.1385C6.38783 19.5223 6.13368 18.7685 6.13482 17.9935C6.13482 16.037 7.72181 14.4507 9.67978 14.4507C10.0446 14.4505 10.4073 14.5065 10.7551 14.6167V10.3326C10.3487 10.277 9.93853 10.2533 9.52858 10.262V13.5965C9.18063 13.4862 8.81776 13.4302 8.45275 13.4305C6.49487 13.4305 4.90797 15.0167 4.90797 16.9735C4.90797 18.3571 5.70115 19.5549 6.858 20.1385Z" fill="#FF004F"/>
<path d="M16.2145 8.43445C17.8616 9.61087 19.8786 10.303 22.0572 10.303V7.00465C20.8411 6.74572 19.7646 6.11052 18.9552 5.22706C17.5698 4.36299 16.5714 2.93743 16.2787 1.2688H13.2246V18.0056C13.2177 19.9568 11.6334 21.5366 9.67968 21.5366C8.52847 21.5366 7.50572 20.9882 6.858 20.1385C5.70115 19.5549 4.90797 18.3571 4.90797 16.9735C4.90797 15.0167 6.49487 13.4305 8.45275 13.4305C8.82788 13.4305 9.18942 13.4889 9.52858 13.5965V10.262C5.324 10.3489 1.94257 13.7827 1.94257 18.0057C1.94257 20.1138 2.78443 22.0247 4.1511 23.421C5.38404 24.2486 6.86832 24.7311 8.46518 24.7311C12.7449 24.7311 16.2145 21.2636 16.2145 16.9857V8.43445Z" fill="black"/>
<path d="M22.0572 7.00465L22.0572 6.11281C20.9605 6.11447 19.8856 5.80753 18.9552 5.22706C19.7788 6.12825 20.8632 6.74972 22.0572 7.00465ZM16.2787 1.2688C16.2508 1.10937 16.2293 0.948784 16.2145 0.787616V0.248688H11.9974V16.9856C11.9907 18.9366 10.4064 20.5165 8.4526 20.5165C7.8987 20.5173 7.35262 20.3878 6.858 20.1385C7.50572 20.9882 8.52847 21.5366 9.67968 21.5366C11.6334 21.5366 13.2177 19.9568 13.2246 18.0056V1.2688H16.2787ZM9.52858 10.262L9.52869 9.31262C9.1763 9.26445 8.82104 9.24036 8.46538 9.2405C4.18516 9.2405 0.715576 12.7082 0.715576 16.9856C0.715576 19.6674 2.07897 22.0308 4.1511 23.421C2.78443 22.0247 1.94257 20.1138 1.94257 18.0057C1.94257 13.7827 5.324 10.3489 9.52858 10.262Z" fill="#00F2EA"/>
</svg>
