<svg width="18" height="18" viewBox="0 0 18 18" xmlns="http://www.w3.org/2000/svg">
<path d="M2.49889 14.0797C1.31951 12.5699 0.749878 10.9153 0.749878 8.99945C0.750043 7.6895 1.06214 6.39841 1.66035 5.23302C2.25855 4.06763 3.12567 3.06144 4.18994 2.2977C5.25422 1.53396 6.48507 1.03463 7.78064 0.841028C9.07621 0.647426 10.3993 0.765114 11.6403 1.18436C12.8814 1.6036 14.0048 2.31234 14.9175 3.25194C15.8303 4.19154 16.5062 5.33499 16.8893 6.58767C17.2724 7.84035 17.3517 9.16625 17.1207 10.4557C16.8896 11.7451 16.3548 12.961 15.5606 14.0027M2.49889 14.0797C3.26819 13.0694 4.26065 12.2507 5.39873 11.6874C6.53681 11.1242 7.7897 10.8317 9.05953 10.8328C10.3129 10.8316 11.5501 11.1165 12.6767 11.6659C13.8033 12.2152 14.7896 13.0144 15.5606 14.0027M2.49889 14.0797C3.00723 14.5973 3.29223 14.8875 3.80057 15.4052C5.26933 16.6008 7.10605 17.2524 8.99994 17.2495C10.9273 17.2522 12.7943 16.5773 14.2745 15.3428C14.7767 14.8195 15.0583 14.526 15.5606 14.0027M11.3512 6.24941C11.3512 7.51507 10.3252 8.54109 9.05953 8.54109C7.79387 8.54109 6.76784 7.51507 6.76784 6.24941C6.76784 4.98375 7.79387 3.95772 9.05953 3.95772C10.3252 3.95772 11.3512 4.98375 11.3512 6.24941Z"/>
</svg>
