<svg width="32" height="31" viewBox="0 0 32 31" fill="none" xmlns="http://www.w3.org/2000/svg">
<path d="M16 0.236328C7.57091 0.236328 0.736328 7.07091 0.736328 15.5C0.736328 23.9291 7.57091 30.7637 16 30.7637C24.4291 30.7637 31.2637 23.9291 31.2637 15.5C31.2637 7.07091 24.4291 0.236328 16 0.236328ZM23.3354 11.742C23.3456 11.9021 23.3456 12.0691 23.3456 12.2326C23.3456 17.2342 19.5365 22.9956 12.5759 22.9956C10.4294 22.9956 8.43971 22.3721 6.76343 21.2988C7.07007 21.3329 7.36308 21.3465 7.67653 21.3465C9.44821 21.3465 11.0768 20.7469 12.3749 19.7316C10.7122 19.6975 9.31533 18.6072 8.83834 17.1081C9.42095 17.1933 9.94564 17.1933 10.5453 17.04C9.68917 16.8661 8.91968 16.4011 8.36754 15.7241C7.81539 15.0471 7.51465 14.1999 7.5164 13.3263V13.2786C8.01724 13.5614 8.60666 13.7351 9.22334 13.759C8.70493 13.4135 8.27978 12.9454 7.98559 12.3963C7.6914 11.8471 7.53726 11.2338 7.53684 10.6109C7.53684 9.90559 7.72082 9.26166 8.05131 8.7029C9.00155 9.87267 10.1873 10.8294 11.5315 11.5109C12.8757 12.1924 14.3483 12.5834 15.8535 12.6585C15.3186 10.0862 17.2402 8.00445 19.5502 8.00445C20.6404 8.00445 21.6217 8.46099 22.3133 9.19692C23.1685 9.03679 23.9862 8.71652 24.7153 8.28723C24.4325 9.16285 23.8397 9.90218 23.0526 10.369C23.8158 10.2872 24.5517 10.0759 25.2332 9.77953C24.7187 10.5359 24.0748 11.2071 23.3354 11.742Z" fill="#1D9BF0"/>
</svg>
