<svg width="32" height="31" viewBox="0 0 32 31" fill="none" xmlns="http://www.w3.org/2000/svg">
<path d="M28.9622 7.32983C24.4022 0.299786 15.0921 -1.79023 7.8721 2.5798C0.842062 6.94983 -1.43795 16.4499 3.12208 23.4799L3.50208 24.0499L1.98207 29.75L7.6821 28.23L8.25211 28.61C10.7221 29.94 13.3821 30.7 16.0422 30.7C18.8922 30.7 21.7422 29.94 24.2122 28.42C31.2422 23.8599 33.3323 14.5499 28.9622 7.32983ZM24.9722 21.9599C24.2122 23.0999 23.2622 23.8599 21.9322 24.0499C21.1722 24.0499 20.2222 24.4299 16.4222 22.9099C13.1921 21.3899 10.5321 18.9199 8.63211 16.0699C7.4921 14.7399 6.9221 13.0299 6.7321 11.3199C6.7321 9.79984 7.3021 8.46984 8.25211 7.51983C8.63211 7.13983 8.96018 7.02646 9.39211 6.94983C9.73682 6.88867 9.87544 6.90135 10.3232 6.90135C10.771 6.90135 10.9881 6.94983 11.2921 7.70983C11.6721 8.65984 12.5198 10.5557 12.6221 11.1299C12.7245 11.704 12.9887 12.2833 12.4321 12.8399C11.8755 13.3965 11.211 14.0077 11.4821 14.5499C12.2421 15.6899 13.1921 16.8299 14.1421 17.7799C15.2822 18.7299 16.4222 19.4899 17.7522 20.0599C18.1322 20.2499 18.5122 20.2499 18.7022 19.8699C18.8922 19.4899 19.8422 18.5399 20.2222 18.1599C20.6022 17.7799 20.7922 17.7799 21.1722 17.9699L24.2122 19.4899C24.5922 19.6799 24.9722 19.8699 25.1622 20.0599C25.3522 20.6299 25.3522 21.3899 24.9722 21.9599Z" fill="#37CD85"/>
</svg>
