<?xml version="1.0" encoding="utf-8"?>
<!-- Generator: Adobe Illustrator 23.0.2, SVG Export Plug-In . SVG Version: 6.00 Build 0)  -->
<svg version="1.1" id="图层_1" xmlns="http://www.w3.org/2000/svg" xmlns:xlink="http://www.w3.org/1999/xlink" x="0px" y="0px"
	 viewBox="0 0 26 18" style="enable-background:new 0 0 26 18;" xml:space="preserve">
<g>
	<path d="M23.6,17H2.4c-0.6,0-0.9,0-1.2-0.2c-0.2-0.1-0.4-0.3-0.6-0.6c-0.2-0.3-0.2-0.6-0.2-1.2V2.9c0-0.6,0-0.9,0.2-1.2
		C0.8,1.5,1,1.3,1.2,1.1C1.5,1,1.9,1,2.4,1h21.2c0.6,0,0.9,0,1.2,0.2c0.2,0.1,0.4,0.3,0.6,0.6c0.2,0.3,0.2,0.6,0.2,1.2v12.3
		c0,0.6,0,0.9-0.2,1.2c-0.1,0.2-0.3,0.4-0.6,0.6C24.5,17,24.1,17,23.6,17z M1.5,2.4c0,0.1,0,0.3,0,0.4v12.3c0,0.3,0,0.6,0,0.7
		c0,0.1,0.1,0.1,0.1,0.1c0.1,0,0.4,0,0.7,0h21.2c0.3,0,0.6,0,0.7,0c0.1,0,0.1-0.1,0.1-0.1c0-0.1,0-0.4,0-0.7V2.9c0-0.2,0-0.3,0-0.4
		L13.9,9.8c-0.5,0.3-1.2,0.3-1.7,0L1.5,2.4z M2.6,2l10.1,7c0.2,0.1,0.4,0.1,0.6,0l10.1-7H2.6z"/>
</g>
</svg>
